<svg id="visual" viewBox="0 0 900 600" width="900" height="600" xmlns="http://www.w3.org/2000/svg" xmlns:xlink="http://www.w3.org/1999/xlink" version="1.1"><rect x="0" y="0" width="900" height="600" fill="#f0747d"></rect><path d="M0 201L21.5 205.2C43 209.3 86 217.7 128.8 210.5C171.7 203.3 214.3 180.7 257.2 153.3C300 126 343 94 385.8 102.8C428.7 111.7 471.3 161.3 514.2 181.5C557 201.7 600 192.3 642.8 165.3C685.7 138.3 728.3 93.7 771.2 96C814 98.3 857 147.7 878.5 172.3L900 197L900 601L878.5 601C857 601 814 601 771.2 601C728.3 601 685.7 601 642.8 601C600 601 557 601 514.2 601C471.3 601 428.7 601 385.8 601C343 601 300 601 257.2 601C214.3 601 171.7 601 128.8 601C86 601 43 601 21.5 601L0 601Z" fill="#6267b0"></path><path d="M0 326L21.5 362.3C43 398.7 86 471.3 128.8 479.7C171.7 488 214.3 432 257.2 419C300 406 343 436 385.8 461.3C428.7 486.7 471.3 507.3 514.2 475C557 442.7 600 357.3 642.8 348.2C685.7 339 728.3 406 771.2 424.5C814 443 857 413 878.5 398L900 383L900 601L878.5 601C857 601 814 601 771.2 601C728.3 601 685.7 601 642.8 601C600 601 557 601 514.2 601C471.3 601 428.7 601 385.8 601C343 601 300 601 257.2 601C214.3 601 171.7 601 128.8 601C86 601 43 601 21.5 601L0 601Z" fill="#fbc661"></path></svg>