<svg id="visual" viewBox="0 0 3000 2000" width="3000" height="2000" xmlns="http://www.w3.org/2000/svg" xmlns:xlink="http://www.w3.org/1999/xlink" version="1.1"><path d="M0 201L214 101L429 221L643 161L857 161L1071 181L1286 181L1500 141L1714 101L1929 101L2143 221L2357 121L2571 121L2786 141L3000 181L3000 0L2786 0L2571 0L2357 0L2143 0L1929 0L1714 0L1500 0L1286 0L1071 0L857 0L643 0L429 0L214 0L0 0Z" fill="#28865b"></path><path d="M0 381L214 221L429 361L643 321L857 421L1071 321L1286 381L1500 401L1714 301L1929 281L2143 461L2357 401L2571 261L2786 301L3000 501L3000 179L2786 139L2571 119L2357 119L2143 219L1929 99L1714 99L1500 139L1286 179L1071 179L857 159L643 159L429 219L214 99L0 199Z" fill="#257b53"></path><path d="M0 1081L214 681L429 681L643 761L857 761L1071 781L1286 921L1500 861L1714 821L1929 661L2143 961L2357 761L2571 561L2786 881L3000 881L3000 499L2786 299L2571 259L2357 399L2143 459L1929 279L1714 299L1500 399L1286 379L1071 319L857 419L643 319L429 359L214 219L0 379Z" fill="#21714c"></path><path d="M0 1281L214 901L429 1061L643 1161L857 1041L1071 1101L1286 1201L1500 1281L1714 1221L1929 961L2143 1221L2357 1121L2571 1001L2786 1121L3000 1161L3000 879L2786 879L2571 559L2357 759L2143 959L1929 659L1714 819L1500 859L1286 919L1071 779L857 759L643 759L429 679L214 679L0 1079Z" fill="#1e6645"></path><path d="M0 1641L214 1441L429 1521L643 1581L857 1561L1071 1601L1286 1541L1500 1701L1714 1541L1929 1581L2143 1541L2357 1541L2571 1621L2786 1501L3000 1641L3000 1159L2786 1119L2571 999L2357 1119L2143 1219L1929 959L1714 1219L1500 1279L1286 1199L1071 1099L857 1039L643 1159L429 1059L214 899L0 1279Z" fill="#1a5c3d"></path><path d="M0 1781L214 1621L429 1681L643 1701L857 1701L1071 1701L1286 1701L1500 1801L1714 1641L1929 1701L2143 1721L2357 1681L2571 1701L2786 1661L3000 1801L3000 1639L2786 1499L2571 1619L2357 1539L2143 1539L1929 1579L1714 1539L1500 1699L1286 1539L1071 1599L857 1559L643 1579L429 1519L214 1439L0 1639Z" fill="#175237"></path><path d="M0 1921L214 1821L429 1821L643 1881L857 1841L1071 1881L1286 1821L1500 1901L1714 1821L1929 1921L2143 1821L2357 1861L2571 1921L2786 1881L3000 1921L3000 1799L2786 1659L2571 1699L2357 1679L2143 1719L1929 1699L1714 1639L1500 1799L1286 1699L1071 1699L857 1699L643 1699L429 1679L214 1619L0 1779Z" fill="#134830"></path><path d="M0 2001L214 2001L429 2001L643 2001L857 2001L1071 2001L1286 2001L1500 2001L1714 2001L1929 2001L2143 2001L2357 2001L2571 2001L2786 2001L3000 2001L3000 1919L2786 1879L2571 1919L2357 1859L2143 1819L1929 1919L1714 1819L1500 1899L1286 1819L1071 1879L857 1839L643 1879L429 1819L214 1819L0 1919Z" fill="#103e29"></path></svg>